# File created by Blade
# Date/Time:  Wed Apr 08 14:54:55 2015
#---------------------------------------------------------
:version 1.10
:name HOM
:units
  mass 1.0
  length 1.000000
  angle deg
:documentation
     Acclaim Skeleton File
:root
   axis xyz
   order TX TY TZ RX RY RZ
   position 0.000000 0.000000 0.000000
   orientation 0 0 0
:bonedata
   begin
      id 1
      name Spine_dum
      direction 0.000000 1.000000 0.000000
      length 4.885285
      axis 0.0 0.0 0.0 xyz
   end
   begin
      id 2
      name LeftUpLeg_dum
      direction 1.000000 0.000000 0.000000
      length 2.672193
      axis 0.0 0.0 0.0 xyz
   end
   begin
      id 3
      name RightUpLeg_dum
      direction -1.000000 0.000000 0.000000
      length 2.672193
      axis 0.0 0.0 0.0 xyz
   end
   begin
      id 4
      name Spine
      direction 0.000000 1.000000 0.000000
      length 0.000000
      axis 0.0 0.0 0.0 xyz
      dof rx ry rz
   end
   begin
      id 5
      name Spine_dum1
      direction 0.000000 1.000000 0.000000
      length 16.494159
      axis 0.0 0.0 0.0 xyz
   end
   begin
      id 6
      name Spine_dum2
      direction 0.000000 1.000000 0.000000
      length 10.663448
      axis 0.0 0.0 0.0 xyz
   end
   begin
      id 7
      name Spine_dum3
      direction 0.000000 1.000000 0.000000
      length 10.663448
      axis 0.0 0.0 0.0 xyz
   end
   begin
      id 8
      name Head
      direction 0.000000 1.000000 0.000000
      length 4.527550
      axis 0.0 0.0 0.0 xyz
      dof rx ry rz
   end
   begin
      id 9
      name LeftShoulder
      direction 1.000000 0.000000 0.000000
      length 7.531907
      axis 0.0 0.0 -90.0 xyz
      dof rx ry rz
   end
   begin
      id 10
      name LeftArm
      direction 1.000000 0.000000 0.000000
      length 10.229199
      axis 0.0 0.0 -90.0 xyz
      dof rx ry rz
   end
   begin
      id 11
      name LeftForeArm
      direction 1.000000 0.000000 0.000000
      length 8.673495
      axis 0.0 0.0 -90.0 xyz
      dof ry rz rx
   end
   begin
      id 12
      name LeftHand
      direction 0.000000 0.000000 0.000000
      length 0.000000
      axis 0.0 0.0 -90.0 xyz
      dof rx ry rz
   end
   begin
      id 13
      name LeftHand_dum1
      direction 0.000000 0.000000 0.000000
      length 0.000000
      axis 0.0 0.0 -90.0 xyz
   end
   begin
      id 14
      name LeftHand_dum2
      direction 1.000000 0.000000 0.000000
      length 3.937000
      axis 0.0 0.0 -90.0 xyz
   end
   begin
      id 15
      name LeftHandThumb1
      direction 0.000000 0.000000 1.000000
      length 3.937000
      axis 0.0 0.0 -90.0 xyz
      dof rx rz ry
   end
   begin
      id 16
      name RightShoulder
      direction -1.000000 0.000000 0.000000
      length 7.531907
      axis 0.0 0.0 90.0 xyz
      dof rx ry rz
   end
   begin
      id 17
      name RightArm
      direction -1.000000 0.000000 0.000000
      length 10.229199
      axis 0.0 0.0 90.0 xyz
      dof rx ry rz
   end
   begin
      id 18
      name RightForeArm
      direction -1.000000 0.000000 0.000000
      length 8.673495
      axis 0.0 0.0 90.0 xyz
      dof ry rz rx
   end
   begin
      id 19
      name RightHand
      direction 0.000000 0.000000 0.000000
      length 0.000000
      axis 0.0 0.0 90.0 xyz
      dof rx ry rz
   end
   begin
      id 20
      name RightHand_dum1
      direction 0.000000 0.000000 0.000000
      length 0.000000
      axis 0.0 0.0 90.0 xyz
   end
   begin
      id 21
      name RightHand_dum2
      direction -1.000000 0.000000 0.000000
      length 3.937000
      axis 0.0 0.0 90.0 xyz
   end
   begin
      id 22
      name RightHandThumb1
      direction 0.000000 0.000000 1.000000
      length 3.937000
      axis 0.0 0.0 90.0 xyz
      dof rx rz ry
   end
   begin
      id 23
      name LeftUpLeg
      direction 0.000000 -1.000000 0.000000
      length 16.263388
      axis 0.0 0.0 0.0 xyz
      dof rx ry rz
   end
   begin
      id 24
      name LeftLeg
      direction 0.000000 -1.000000 0.000000
      length 14.328163
      axis 0.0 0.0 0.0 xyz
      dof rx ry rz
   end
   begin
      id 25
      name LeftFoot
      direction 0.000000 -0.258819 0.965926
      length 5.031290
      axis 15.0 0.0 0.0 xyz
      dof rx ry rz
   end
   begin
      id 26
      name LeftToeBase
      direction 0.000000 0.000000 1.000000
      length 2.952750
      axis 0.0 0.0 0.0 xyz
      dof rx ry rz
   end
   begin
      id 27
      name RightUpLeg
      direction 0.000000 -1.000000 0.000000
      length 16.263388
      axis 0.0 0.0 0.0 xyz
      dof rx ry rz
   end
   begin
      id 28
      name RightLeg
      direction 0.000000 -1.000000 0.000000
      length 14.328163
      axis 0.0 0.0 0.0 xyz
      dof rx ry rz
   end
   begin
      id 29
      name RightFoot
      direction 0.000000 -0.258819 0.965926
      length 5.031290
      axis 15.0 0.0 0.0 xyz
      dof rx ry rz
   end
   begin
      id 30
      name RightToeBase
      direction 0.000000 0.000000 1.000000
      length 2.952750
      axis 0.0 0.0 0.0 xyz
      dof rx ry rz
   end
:hierarchy
   begin
      root Spine_dum LeftUpLeg_dum RightUpLeg_dum
      Spine_dum Spine
      LeftUpLeg_dum LeftUpLeg
      RightUpLeg_dum RightUpLeg
      Spine Spine_dum1 Spine_dum2 Spine_dum3
      Spine_dum1 Head
      Spine_dum2 LeftShoulder
      Spine_dum3 RightShoulder
      LeftShoulder LeftArm
      LeftArm LeftForeArm
      LeftForeArm LeftHand
      LeftHand LeftHand_dum1 LeftHand_dum2
      LeftHand_dum1 LeftHandThumb1
      RightShoulder RightArm
      RightArm RightForeArm
      RightForeArm RightHand
      RightHand RightHand_dum1 RightHand_dum2
      RightHand_dum1 RightHandThumb1
      LeftUpLeg LeftLeg
      LeftLeg LeftFoot
      LeftFoot LeftToeBase
      RightUpLeg RightLeg
      RightLeg RightFoot
      RightFoot RightToeBase
   end

# File created by Blade
# Date/Time:  Wed Apr 08 14:55:03 2015
# Frame Rate: 120.000 fps
#------------------------------------------------------
:FULLY-SPECIFIED
:DEGREES
343
root 6.144578 33.064740 6.164059 -23.852426 17.254090 -18.601409
Spine 19.724261 -14.993828 8.855451
Head -1.550825 -13.871491 10.744249
LeftShoulder -27.862133 46.440074 2.216231
LeftArm 56.858738 0.376233 -70.466938
LeftForeArm -6.047881 -0.000000 130.908862
LeftHand 8.720059 -0.000000 0.836890
LeftHandThumb1 -26.253704 0.000000 33.147579
RightShoulder -13.007841 -7.522322 -19.941168
RightArm -1.431741 22.791730 62.632061
RightForeArm 14.753763 -0.000000 128.975205
RightHand 13.785541 -0.000000 -20.127905
RightHandThumb1 -24.326973 -0.000000 -32.862282
LeftUpLeg 9.684017 -3.593399 10.700448
LeftLeg 25.068908 -0.000000 -0.000000
LeftFoot -18.050244 14.480740 -10.243798
LeftToeBase -8.890102 -0.000000 0.000000
RightUpLeg -123.356266 -29.017824 1.357423
RightLeg 30.063567 -0.000000 -0.000000
RightFoot 37.256627 -20.675000 -3.540577
RightToeBase 30.229905 -0.000000 -0.000000
344
root 6.134033 33.094749 6.130077 -22.728475 16.653077 -18.727557
Spine 18.464499 -14.067311 9.529610
Head -1.458456 -14.264569 11.207567
LeftShoulder -28.035598 46.557378 2.149875
LeftArm 56.231467 2.050956 -71.473354
LeftForeArm -5.111524 -0.000000 131.043508
LeftHand 8.880024 0.000000 0.788582
LeftHandThumb1 -26.253704 0.000000 33.147579
RightShoulder -12.825767 -7.407735 -19.756939
RightArm -1.017174 21.849334 63.071611
RightForeArm 15.213374 -0.000000 128.573109
RightHand 13.852971 -0.000000 -20.061178
RightHandThumb1 -24.326973 -0.000000 -32.862282
LeftUpLeg 8.793221 -3.323553 10.895887
LeftLeg 24.624095 -0.000000 -0.000000
LeftFoot -17.662810 15.135642 -10.041327
LeftToeBase -9.312016 -0.000000 0.000000
RightUpLeg -122.926569 -28.434326 1.666332
RightLeg 31.604604 -0.000000 -0.000000
RightFoot 37.450907 -20.582226 -3.236466
RightToeBase 30.086671 -0.000000 -0.000000
345
root 6.122976 33.125730 6.098437 -21.793779 16.031567 -18.775950
Spine 17.537590 -13.070579 9.998487
Head -1.590324 -14.595730 11.821826
LeftShoulder -28.239883 46.569679 2.082498
LeftArm 55.660903 3.544371 -72.333657
LeftForeArm -4.052664 -0.000000 131.266477
LeftHand 8.898978 -0.000000 0.727655
LeftHandThumb1 -26.253704 0.000000 33.147579
RightShoulder -12.671360 -7.324247 -19.488415
RightArm -0.585314 20.973384 63.446668
RightForeArm 15.540720 0.000000 128.324227
RightHand 13.905200 -0.000000 -20.025691
RightHandThumb1 -24.326973 -0.000000 -32.862282
LeftUpLeg 8.224473 -3.181345 10.992742
LeftLeg 24.044190 -0.000000 -0.000000
LeftFoot -17.301394 15.780333 -9.850644
LeftToeBase -9.448844 -0.000000 0.000000
RightUpLeg -122.154074 -27.781564 1.795307
RightLeg 33.311465 -0.000000 -0.000000
RightFoot 37.720658 -20.535492 -3.046104
RightToeBase 30.109937 -0.000000 -0.000000
346
root 6.122280 33.155623 6.070972 -20.938012 15.665977 -18.808304
Spine 16.636484 -12.233059 10.330655
Head -1.684564 -14.966217 12.436918
LeftShoulder -28.306718 46.656785 2.065866
LeftArm 55.186291 4.845154 -73.050242
LeftForeArm -3.155427 -0.000000 131.475730
LeftHand 9.057921 -0.000000 0.764114
LeftHandThumb1 -26.253704 0.000000 33.147579
RightShoulder -12.587536 -7.602432 -19.061599
RightArm 0.153370 20.193667 63.717159
RightForeArm 15.539463 -0.000000 128.216030
RightHand 14.021665 -0.000000 -19.815589
RightHandThumb1 -24.326973 -0.000000 -32.862282
LeftUpLeg 7.744677 -3.363628 10.958416
LeftLeg 23.402891 -0.000000 -0.000000
LeftFoot -16.943574 16.410048 -9.700514
LeftToeBase -9.624038 -0.000000 0.000000
RightUpLeg -121.300966 -27.324306 1.868336
RightLeg 35.261865 -0.000000 -0.000000
RightFoot 38.015426 -20.374362 -3.078976
RightToeBase 30.341626 -0.000000 -0.000000
347
root 6.123494 33.185718 6.039443 -20.297763 15.403171 -18.892253
Spine 16.028455 -11.504952 10.602537
Head -2.003189 -15.321871 13.124527
LeftShoulder -28.414931 46.739410 1.991810
LeftArm 54.868817 6.012304 -73.606345
LeftForeArm -2.468808 -0.000000 131.713660
LeftHand 9.078075 -0.000000 1.014034
LeftHandThumb1 -26.253704 0.000000 33.147579
RightShoulder -12.365833 -7.649095 -18.711491
RightArm 0.467375 19.513764 63.850953
RightForeArm 15.109396 0.000000 128.338534
RightHand 13.992698 -0.000000 -19.729979
RightHandThumb1 -24.326973 -0.000000 -32.862282
LeftUpLeg 7.441459 -3.641742 10.956311
LeftLeg 22.756884 -0.000000 -0.000000
LeftFoot -16.584349 16.950235 -9.550511
LeftToeBase -9.795455 -0.000000 0.000000
RightUpLeg -120.129683 -26.954079 1.852780
RightLeg 37.355988 -0.000000 -0.000000
RightFoot 38.273058 -20.049856 -2.989123
RightToeBase 30.802294 -0.000000 -0.000000
348
root 6.117397 33.213872 5.995948 -19.790729 15.229323 -18.987069
Spine 15.612980 -10.983329 10.771336
Head -2.345794 -15.539784 13.758782
LeftShoulder -28.536111 46.832706 1.903368
LeftArm 54.590007 6.925277 -74.124434
LeftForeArm -2.503175 -0.000000 131.884230
LeftHand 9.399631 0.000000 1.294112
LeftHandThumb1 -26.253704 0.000000 33.147579
RightShoulder -12.044706 -7.744916 -18.426536
RightArm 0.941189 18.826203 64.104508
RightForeArm 14.316226 -0.000000 128.482667
RightHand 14.208978 -0.000000 -19.708065
RightHandThumb1 -24.326973 -0.000000 -32.862282
LeftUpLeg 7.220104 -3.826704 10.989553
LeftLeg 22.088773 -0.000000 -0.000000
LeftFoot -16.178304 17.512222 -9.031633
LeftToeBase -9.693500 -0.000000 0.000000
RightUpLeg -118.560273 -26.651764 1.489885
RightLeg 39.475720 -0.000000 -0.000000
RightFoot 38.596102 -19.740390 -3.067022
RightToeBase 30.781524 -0.000000 -0.000000
349
root 6.108349 33.241649 5.948238 -19.342914 15.171680 -19.233444
Spine 15.281307 -10.131895 11.154624
Head -3.162707 -16.146910 14.572011
LeftShoulder -28.056656 46.650668 2.324707
LeftArm 54.300377 7.899354 -74.399018
LeftForeArm -2.680514 -0.000000 131.999536
LeftHand 9.421958 -0.000000 1.521709
LeftHandThumb1 -26.253704 0.000000 33.147579
RightShoulder -12.365470 -7.877388 -18.022972
RightArm 1.496205 18.092062 64.242535
RightForeArm 13.287912 0.000000 128.627283
RightHand 14.350918 -0.000000 -19.423348
RightHandThumb1 -24.326973 -0.000000 -32.862282
LeftUpLeg 6.951342 -3.904653 11.205519
LeftLeg 21.447139 -0.000000 -0.000000
LeftFoot -15.792029 17.813855 -8.607657
LeftToeBase -9.719846 -0.000000 0.000000
RightUpLeg -117.046179 -26.370760 1.574064
RightLeg 41.699493 -0.000000 -0.000000
RightFoot 38.781523 -19.351637 -3.252185
RightToeBase 31.029190 -0.000000 -0.000000
